<?xml version="1.0" encoding="UTF-8" standalone="no"?>
<svg width="61px" height="61px" viewBox="0 0 61 61" version="1.1" xmlns="http://www.w3.org/2000/svg" xmlns:xlink="http://www.w3.org/1999/xlink">
    <!-- Generator: Sketch 47 (45396) - http://www.bohemiancoding.com/sketch -->
    <title>Combined Shape</title>
    <desc>Created with Sketch.</desc>
    <defs></defs>
    <g id="初稿" stroke="none" stroke-width="1" fill="none" fill-rule="evenodd">
        <g id="9.my_list_true" transform="translate(-675.000000, -351.000000)" fill="#FF1F1F">
            <g id="Group-6" transform="translate(705.183013, 381.316987) rotate(30.000000) translate(-705.183013, -381.316987) translate(675.183013, 351.316987)">
                <path d="M30,60 C13.4314575,60 0,46.5685425 0,30 C0,13.4314575 13.4314575,0 30,0 C46.5685425,0 60,13.4314575 60,30 C60,46.5685425 46.5685425,60 30,60 Z M30,58.125 C45.5330086,58.125 58.125,45.5330086 58.125,30 C58.125,14.4669914 45.5330086,1.875 30,1.875 C14.4669914,1.875 1.875,14.4669914 1.875,30 C1.875,45.5330086 14.4669914,58.125 30,58.125 Z M28.28016,16 L31.41648,16 L31.41648,20.96584 L41.72568,20.96584 L41.72568,35.13736 L38.67648,35.13736 L38.67648,33.54016 L31.41648,33.54016 L31.41648,43.23952 L28.28016,43.23952 L28.28016,33.54016 L21.0492,33.54016 L21.0492,35.13736 L18,35.13736 L18,20.96584 L28.28016,20.96584 L28.28016,16 Z M21.0492,30.57808 L28.28016,30.57808 L28.28016,23.92792 L21.0492,23.92792 L21.0492,30.57808 Z M31.41648,30.57808 L38.67648,30.57808 L38.67648,23.92792 L31.41648,23.92792 L31.41648,30.57808 Z" id="Combined-Shape"></path>
            </g>
        </g>
    </g>
</svg>